<svg xmlns="http://www.w3.org/2000/svg" viewBox="0 0 30 30"><path d="M12.6 10.4c.2.5-.8 1.6-.5 2 .5.3 1.6-.8 2-.6.5.2.5 1.7 1 1.7s.6-1.5 1-1.7c.5-.2 1.6.8 2 .5.3-.4-.8-1.5-.6-2 .2-.4 1.7-.4 1.7-1s-1.4-.5-1.6-1c-.2-.4.8-1.5.5-1.8-.5-.4-1.6.7-2 .5-.5-.2-.5-1.7-1-1.7s-.6 1.5-1 1.7c-.5.2-1.6-.8-2-.5-.3.4.8 1.5.6 2-.2.4-1.7.4-1.7 1s1.4.4 1.6 1zM24 4V.8c0-.4-.3-.8-.8-.8H6.7c-.4 0-.7.4-.7.8V4c-1.4 0-4 .4-4 3.3 0 2.2 1.6 5.5 4 6 .4 4.3 3.6 7.3 6.5 7.3h.4v3.7h-2.2c-1 0-2 .8-2 2v3c0 .3.4.7 1 .7h10.6c.4 0 .8-.3.8-.8v-3c0-1-.8-2-2-2h-2v-3.6c4-.2 6.5-3.7 7-7.3 2.3-.3 4-3.7 4-6C28 4.4 25.3 4 24 4zM6 11.7C4.7 11.2 3.5 9 3.5 7.3c0-1 .5-1.7 2.5-1.8v6.2zm13.2 14c.2 0 .4.3.4.5v2.3h-9.2v-2.3c0-.2.2-.4.4-.4h8.4zm-4.8-1.4v-3.7h1.2v3.7h-1.2zm8-12c0 2.8-1.7 6.8-5.6 6.8h-4.3c-2.4 0-5-2.7-5-6.7V1.6h15v10.7zm1.6-.6V5.5c2 0 2.4.8 2.4 2 0 1.6-1 3.8-2.4 4.2z"/></svg>
